<?xml version="1.0" encoding="utf-8"?>
<!-- Generator: Adobe Illustrator 19.2.0, SVG Export Plug-In . SVG Version: 6.00 Build 0)  -->
<svg version="1.1" id="Слой_1" xmlns="http://www.w3.org/2000/svg" xmlns:xlink="http://www.w3.org/1999/xlink" x="0px" y="0px"
	 viewBox="0 0 522.2 141.6" style="enable-background:new 0 0 522.2 141.6;" xml:space="preserve">
<style type="text/css">
	.st0{fill:#035696;}
	.st1{fill:#F38122;}
	.st2{fill:#F7FAFB;}
</style>
<path class="st0" d="M522,20.8c0,24.3,0,48.7,0,73c0,2.3-0.3,4.6-0.4,7c-3.6,11-8.6,14.6-21.3,14.6c-160.1,0-320.1,0-480.2,0
	c-11.2,0-16.2-3.7-19.8-14.5c-0.1-9.3-0.3-64-0.3-82C0,7.6,6.9,0.4,18.2,0c2.2-0.1,483,0,483,0C515.2,0,522,6.8,522,20.8z"/>
<path class="st1" d="M0.3,100.8c3.6,10.7,8.6,14.5,19.8,14.5c160.1,0,320.1,0,480.2,0c12.6,0,17.7-3.6,21.3-14.6
	c0.8,8.3,0.8,16.6,0.2,24.9c-0.7,9-7.4,15.1-16.5,15.8c-2.8,0.2-5.7,0.1-8.5,0.1c-157,0-314,0-471,0c-3.5,0-7,0.1-10.5-0.3
	c-8.3-0.9-14.9-7.7-15.2-16C-0.2,117.1,0.2,109,0.3,100.8z"/>
<path class="st2" d="M274.4,57.5c8.5,4.3,11.4,9.5,10.2,17.5c-1.3,8.2-5.8,13.1-14.5,14.1c-14.6,1.6-29.3,0.4-43.9,0.7
	c-2,0-2.5-1-2.5-2.8c0-19.5,0-39,0-58.5c0-2.2,0.8-2.9,2.9-2.9c13.6,0.3,27.3-0.7,40.9,0.7c11.6,1.2,17.6,9.9,15.2,21.2
	C281.9,52,279.2,55.2,274.4,57.5z M251.1,78.2c3.2,0,6.3,0.1,9.5,0c5.5-0.2,8.2-2.5,8.3-7.2c0.1-4.7-2.4-7.3-7.9-7.6
	c-6.5-0.3-12.9,0-19.4-0.1c-1.7,0-2.7,0.3-3,2.3c-1.8,10.8-0.5,12.5,10.2,12.5C249.4,78.2,250.3,78.2,251.1,78.2z M250.9,37.4
	c-3.2,0-6.3,0.1-9.4,0c-2.1-0.1-3,0.7-3,2.8c0.1,3,0.1,6,0,9c0,1.9,0.8,2.6,2.7,2.6c6.3-0.1,12.6,0.1,18.9-0.1
	c4.4-0.1,7.3-2.2,7.4-6.9c0.1-4.3-2.6-7-7.7-7.3C256.8,37.2,253.8,37.4,250.9,37.4z"/>
<path class="st2" d="M425.1,89.7c-5.4,0-10,0-14.6,0c-2.1,0-2.7-1.6-3.6-3c-3.6-6-7.4-11.9-10.7-18c-1.6-3-3.6-4.1-7.1-4.1
	C377,64.9,377,64.7,377,76.7c0,0.8,0,1.7,0,2.5c0,11.7-0.3,11.9-12.2,10.6c-2.2-0.3-2.7-1.2-2.7-3.2c0-19.3,0.1-38.6,0-57.9
	c0-2.5,1.1-3.1,3.3-3.1c12.8,0.3,25.6-0.6,38.4,0.5c10.5,0.9,16.2,5.5,17.9,14.3c2,10.3-1.4,17.2-10.9,21.9
	c-2.6,1.3-1.5,2.3-0.6,3.7c4.1,6.3,8.1,12.6,12.1,18.9C423.2,86.3,423.9,87.7,425.1,89.7z M389.3,53.2c3.7-0.2,8.2,0.3,12.6-0.9
	c3.6-1,5.2-3.3,5.3-6.9c0-3.9-1.6-6.6-5.7-7.5c-6.7-1.3-13.6-0.4-20.3-0.8c-3.3-0.2-4.1,0.8-4.1,4.1
	C376.9,53.2,376.8,53.2,389.3,53.2z"/>
<path class="st2" d="M474,89.4c-6.3,0-12.7,0.4-19-0.1c-13.1-1.1-22.3-9.8-23.9-22.7c-0.8-6.4-0.8-12.9,0.6-19.4
	c2.7-12.3,10.9-19.7,23.5-21c12-1.2,24-0.3,35.9-0.6c2.5-0.1,3.2,1.1,3,3.3c-0.1,1.5-0.2,3,0,4.5c0.4,3.2-0.9,3.9-3.9,3.9
	c-9-0.2-18-0.2-27,0c-9.9,0.2-13.9,3.5-15.7,13.1c-1,5.1-1,10.3,0.1,15.4c1.7,8.2,5.7,11.7,14,12.3c2.3,0.2,4.7,0.1,7,0.1
	c11.8,0,11.7,0,10.6-12.1c-0.2-2.2-0.9-2.9-3-2.8c-4.2,0.1-8.3-0.1-12.5,0.1c-2.7,0.1-4.1-0.5-3.7-3.5c0.2-1.5,0.2-3,0-4.5
	c-0.3-2.7,0.5-3.9,3.5-3.8c9,0.2,18,0.1,27,0c2.7,0,3.9,0.6,3.8,3.6c-0.2,10.3-0.2,20.6,0,31c0,2.9-0.9,3.7-3.7,3.7
	c-5.5-0.2-11-0.1-16.5-0.1C474,89.6,474,89.5,474,89.4z"/>
<path class="st2" d="M327,63c-4.7,0-9.4,0.3-14-0.1c-4-0.3-4.4,1.5-3.7,4.7c1.5,7.1,5.5,10.3,13.6,10.5c7.3,0.2,14.7,0.2,22,0
	c3.1-0.1,4.7,0.6,4.2,4c-0.2,1.5-0.2,3,0,4.5c0.2,2.4-0.7,3.2-3.1,3.1c-9-0.1-18,0.3-27-0.2c-17.3-0.9-27.3-12.9-26.7-31.4
	c0.1-3.6,0.5-7.3,1.3-10.9c2.8-12.7,11-19.9,23.9-21.1c9.5-0.9,19-0.3,28.5-0.6c3-0.1,3.1,1.3,3.2,3.6c0.2,8,0.2,8-7.6,8
	c-6,0-12-0.2-18,0.1c-8.1,0.4-11.8,3.5-13.7,10c-0.9,3.1-0.2,4.2,3,4.2c8.2,0,16.3-0.1,24.5,0.1c3.5,0.1,8.8-2.4,8.1,5.3
	c-0.7,7.5,0.8,5.9-8.3,6C333.6,63.1,330.3,63,327,63z"/>
<path class="st2" d="M153.9,89.7c-8,0-8.4,0.1-11-7.7c-1.9-5.9-5-8-11.1-7.4c-5.9,0.6-12,0.2-18,0.1c-2.7-0.1-4.5,0.6-5,3.5
	c-0.1,0.5-0.4,0.9-0.6,1.4c-4.2,10.4-4.2,10.3-15.4,10.3c-4,0-4-1.1-2.6-4.2c7-15.1,13.8-30.2,20.7-45.3c0.9-2,2.1-3.9,2.6-5.9
	c1.8-7.5,6.4-9.5,13.7-8.9c4.5,0.3,6.6,1.5,8.4,5.6c7.8,17.8,16.1,35.4,24.2,53.1c2.6,5.6,2.6,5.6-3.4,5.7
	C155.5,89.7,154.7,89.7,153.9,89.7z M114.8,63.2c6.1,0,11.5,0,16.9,0c1.8,0,3-0.3,2.1-2.5c-2.9-7-5.9-13.9-9.1-21.6
	C121.2,47.5,118.1,55.1,114.8,63.2z"/>
<path class="st2" d="M60.1,72.8C66.7,58,73,44.4,78.7,30.7c1.7-4.1,3.8-5.3,8.1-5.1c9.9,0.3,10,0.1,5.9,9.2
	c-7.6,17-15.3,33.9-22.8,50.9c-1.3,3-3,3.8-6.3,4.2c-8.1,1.1-12.3-1.8-15.5-9.5c-7.6-18.2-16.5-35.9-25.2-54.7
	c5.4,0,10.3-0.1,15.2,0c2.2,0,2.3,2.1,3,3.5c5.4,12.3,10.7,24.7,16,37C57.9,68.1,58.7,69.8,60.1,72.8z"/>
<path class="st2" d="M166.4,29.3c-0.1-2.7,0.7-3.7,3.6-3.8c11.1-0.3,11.1-0.4,11.1,10.7c0,9,0,18,0,26.9c0.1,11.3,3.6,14.9,14.9,15
	c5.5,0,11,0.1,16.5,0c2.8-0.1,4.1,0.7,3.6,3.6c0,0.2,0,0.3,0,0.5c0.1,7.5,0.1,7.6-7.2,7.5c-7.8-0.1-15.6,0.5-23.4-0.5
	c-10.6-1.4-17.9-8.8-18.6-19.5C166.6,62.9,166.5,36,166.4,29.3z"/>
<path class="st0" d="M251.1,78.2c-0.8,0-1.7,0-2.5,0c-10.7,0-12-1.6-10.2-12.5c0.3-2,1.3-2.3,3-2.3c6.5,0,13-0.2,19.4,0.1
	c5.5,0.2,8,2.9,7.9,7.6c-0.1,4.6-2.7,7-8.3,7.2C257.4,78.2,254.2,78.2,251.1,78.2z"/>
<path class="st0" d="M250.9,37.4c3,0,6-0.1,9,0c5.1,0.3,7.8,3,7.7,7.3c-0.1,4.8-3,6.8-7.4,6.9c-6.3,0.2-12.6,0-18.9,0.1
	c-1.9,0-2.7-0.7-2.7-2.6c0-3,0.1-6,0-9c-0.1-2.2,0.8-2.9,3-2.8C244.6,37.5,247.7,37.4,250.9,37.4z"/>
<path class="st0" d="M389.3,53.2c-12.5,0-12.3,0-12.4-12c0-3.3,0.9-4.3,4.1-4.1c6.8,0.4,13.6-0.5,20.3,0.8c4.2,0.8,5.8,3.5,5.7,7.5
	c0,3.6-1.7,5.9-5.3,6.9C397.4,53.5,393,53,389.3,53.2z"/>
<path class="st0" d="M114.8,63.2c3.3-8.1,6.4-15.6,9.9-24c3.2,7.6,6.2,14.6,9.1,21.6c0.9,2.2-0.3,2.5-2.1,2.5
	C126.3,63.1,120.9,63.2,114.8,63.2z"/>
</svg>
